<svg width="12" height="4" viewBox="0 0 12 4" fill="none" xmlns="http://www.w3.org/2000/svg">
<path d="M2.87109 2.00195C2.87109 1.31055 2.32031 0.765625 1.61719 0.765625C0.9375 0.765625 0.380859 1.31641 0.380859 2.00195C0.380859 2.68164 0.9375 3.23828 1.61719 3.23828C2.30859 3.23828 2.87109 2.68164 2.87109 2.00195ZM7.23047 2.00195C7.23047 1.31055 6.69141 0.765625 6 0.765625C5.31445 0.765625 4.76367 1.31641 4.76367 2.00195C4.76367 2.68164 5.31445 3.23828 6 3.23828C6.67383 3.23828 7.23047 2.68164 7.23047 2.00195ZM11.6191 2.00195C11.6191 1.31055 11.0684 0.765625 10.377 0.765625C9.68555 0.765625 9.12891 1.31641 9.12891 2.00195C9.12891 2.68164 9.68555 3.23828 10.377 3.23828C11.0566 3.23828 11.6191 2.68164 11.6191 2.00195Z" fill="#ACACAC"/>
</svg>
